HIERARCHY
ROOT Hips
{
	OFFSET -0.001795 -0.223333 0.028219
	CHANNELS 6 Xposition Yposition Zposition Zrotation Yrotation Xrotation 
	JOINT LeftUpLeg
	{
		OFFSET 0.069520 -0.091406 -0.006815
		CHANNELS 3 Zrotation Yrotation Xrotation
		JOINT LeftLeg
		{
			OFFSET 0.034277 -0.375199 -0.004496
			CHANNELS 3 Zrotation Yrotation Xrotation
			JOINT LeftFoot
			{
				OFFSET -0.013596 -0.397961 -0.043693
				CHANNELS 3 Zrotation Yrotation Xrotation
				JOINT LeftToe
				{
					OFFSET 0.026358 -0.055791 0.119288
					CHANNELS 3 Zrotation Yrotation Xrotation
					End Site
					{
						OFFSET 0.000000 0.000000 0.000000
					}
				}
			}
		}
	}
	JOINT RightUpLeg
	{
		OFFSET -0.067670 -0.090522 -0.004320
		CHANNELS 3 Zrotation Yrotation Xrotation
		JOINT RightLeg
		{
			OFFSET -0.038290 -0.382569 -0.008850
			CHANNELS 3 Zrotation Yrotation Xrotation
			JOINT RightFoot
			{
				OFFSET 0.015774 -0.398415 -0.042312
				CHANNELS 3 Zrotation Yrotation Xrotation
				JOINT RightToe
				{
					OFFSET -0.025372 -0.048144 0.123348
					CHANNELS 3 Zrotation Yrotation Xrotation
					End Site
					{
						OFFSET 0.000000 0.000000 0.000000
					}
				}
			}
		}
	}
	JOINT Spine
	{
		OFFSET -0.002533 0.108963 -0.026696
		CHANNELS 3 Zrotation Yrotation Xrotation
		JOINT Spine1
		{
			OFFSET 0.005487 0.135180 0.001092
			CHANNELS 3 Zrotation Yrotation Xrotation
			JOINT Spine2
			{
				OFFSET 0.001457 0.052922 0.025425
				CHANNELS 3 Zrotation Yrotation Xrotation
				JOINT Neck
				{
					OFFSET -0.002778 0.213870 -0.042857
					CHANNELS 3 Zrotation Yrotation Xrotation
					JOINT Head
					{
						OFFSET 0.005152 0.064970 0.051349
						CHANNELS 3 Zrotation Yrotation Xrotation
						End Site
						{
							OFFSET 0.000000 0.000000 0.000000
						}
					}
				}
				JOINT LeftShoulder
				{
					OFFSET 0.078845 0.121749 -0.034090
					CHANNELS 3 Zrotation Yrotation Xrotation
					JOINT LeftArm
					{
						OFFSET 0.090977 0.030469 -0.008868
						CHANNELS 3 Zrotation Yrotation Xrotation
						JOINT LeftForeArm
						{
							OFFSET 0.259612 -0.012772 -0.027456
							CHANNELS 3 Zrotation Yrotation Xrotation
							JOINT LeftHand
							{
								OFFSET 0.249234 0.008986 -0.001171
								CHANNELS 3 Zrotation Yrotation Xrotation
								End Site
								{
									OFFSET 0.000000 0.000000 0.000000
								}
							}
						}
					}
				}
				JOINT RightShoulder
				{
					OFFSET -0.081759 0.118833 -0.038615
					CHANNELS 3 Zrotation Yrotation Xrotation
					JOINT RightArm
					{
						OFFSET -0.096012 0.032551 -0.009143
						CHANNELS 3 Zrotation Yrotation Xrotation
						JOINT RightForeArm
						{
							OFFSET -0.253742 -0.013329 -0.021401
							CHANNELS 3 Zrotation Yrotation Xrotation
							JOINT RightHand
							{
								OFFSET -0.255298 0.007772 -0.005559
								CHANNELS 3 Zrotation Yrotation Xrotation
								End Site
								{
									OFFSET 0.000000 0.000000 0.000000
								}
							}
						}
					}
				}
			}
		}
	}
}
MOTION
Frames: 5
Frame Time: 0.050000
-0.003283 0.931591 -0.071605 -5.554242 1.314056 13.800592 16.486799 0.591004 -25.554834 -7.067647 1.058590 10.943811 3.178202 10.031977 12.688633 0.000000 0.000000 0.000000 -6.564285 1.189316 -18.697203 7.533566 -0.904599 4.345677 -9.107372 -21.423112 20.282461 0.000000 0.000000 0.000000 -11.942988 2.218584 26.118049 3.312975 -0.771401 -11.249275 2.469619 8.215920 32.327574 -2.850820 4.314140 -14.074801 0.000000 0.000000 0.000000 1.112517 -15.879446 5.319936 -27.027186 -63.668269 5.950741 23.413045 -25.674751 -4.276950 0.000000 0.000000 0.000000 -16.276996 24.738086 4.353594 47.113253 53.375133 18.918129 -47.452762 47.762526 -16.723575 0.000000 0.000000 0.000000 
-0.003123 0.931720 -0.072658 -5.482511 1.568409 13.668841 16.445656 0.565126 -25.659076 -7.148107 1.070662 11.097687 3.033877 9.845303 12.761609 0.000000 0.000000 0.000000 -6.955640 1.134642 -18.669215 8.091749 -0.996875 4.470092 -9.240221 -21.574208 20.463837 0.000000 0.000000 0.000000 -12.096177 2.265458 26.625875 3.213675 -0.720007 -11.499430 2.529195 8.660474 32.403552 -3.010844 4.495003 -13.722219 0.000000 0.000000 0.000000 1.279133 -15.986961 5.332164 -26.001940 -64.643396 5.420136 22.237864 -25.403562 -3.988015 0.000000 0.000000 0.000000 -17.571649 24.425859 3.856135 46.668925 52.228594 18.377416 -46.829621 49.431143 -17.110002 0.000000 0.000000 0.000000 
-0.002497 0.932796 -0.073414 -5.280497 1.921523 13.561793 16.000385 0.449471 -25.590520 -6.829885 0.987976 10.878951 2.794793 9.562005 13.024821 0.000000 0.000000 0.000000 -7.309944 1.073107 -18.509346 8.303719 -1.036152 4.396945 -9.386700 -21.716708 20.922029 0.000000 0.000000 0.000000 -11.989994 2.216032 26.879644 2.881253 -0.595293 -11.618523 2.397374 8.943029 32.508803 -3.394111 4.814596 -13.412832 0.000000 0.000000 0.000000 1.723055 -15.722746 5.225856 -26.596010 -65.077028 5.676167 21.707996 -26.505070 -4.062918 0.000000 0.000000 0.000000 -18.780203 23.563105 3.284564 46.283432 50.487357 17.518008 -45.929339 51.907149 -17.654707 0.000000 0.000000 0.000000 
-0.001638 0.933937 -0.073866 -5.135184 2.024746 13.655029 15.399603 0.327851 -25.519854 -6.153412 0.840291 10.470300 2.683112 9.453309 13.262390 0.000000 0.000000 0.000000 -7.827773 1.015452 -18.571764 8.829233 -1.112532 4.280597 -9.402550 -21.694046 21.430021 0.000000 0.000000 0.000000 -11.919577 2.186771 26.801832 2.623369 -0.501323 -11.726381 2.290824 9.250894 32.642140 -3.556733 4.985591 -13.473815 0.000000 0.000000 0.000000 2.103871 -15.388028 5.107207 -27.603031 -65.913516 6.281313 21.143743 -27.164695 -4.032715 0.000000 0.000000 0.000000 -19.710224 22.701036 2.819258 45.691219 48.734948 16.525524 -45.667527 53.976403 -18.297266 0.000000 0.000000 0.000000 
-0.000692 0.934916 -0.074105 -4.974967 2.263058 13.566555 14.974396 0.212976 -25.024406 -5.829881 0.754171 9.610789 2.508675 9.240962 13.421946 0.000000 0.000000 0.000000 -8.058021 0.969198 -18.205804 8.862287 -1.106683 3.858025 -9.470806 -21.731828 21.820232 0.000000 0.000000 0.000000 -11.783692 2.120869 26.758600 2.332069 -0.390527 -11.932320 2.205550 9.209065 32.688588 -3.669796 5.060834 -13.129133 0.000000 0.000000 0.000000 2.234125 -14.872568 4.941540 -29.388993 -66.036373 7.297634 21.299284 -28.721163 -4.308791 0.000000 0.000000 0.000000 -19.916039 22.133020 2.641601 44.942132 47.022387 15.343779 -44.406171 55.446917 -18.192120 0.000000 0.000000 0.000000 
